<svg width="23" height="17" viewBox="0 0 23 17" fill="none" xmlns="http://www.w3.org/2000/svg">
<path d="M21.2176 7.38786C21.7255 8.05214 21.7255 8.94893 21.2176 9.61214C19.618 11.7004 15.7801 16 11.2994 16C6.81872 16 2.98086 11.7004 1.38122 9.61214C1.13413 9.29407 1 8.90277 1 8.5C1 8.09723 1.13413 7.70593 1.38122 7.38786C2.98086 5.29964 6.81872 1 11.2994 1C15.7801 1 19.618 5.29964 21.2176 7.38786Z" stroke="#969696" stroke-width="2" stroke-linecap="round" stroke-linejoin="round"/>
<path d="M11.2995 11.7143C13.0747 11.7143 14.5138 10.2752 14.5138 8.49999C14.5138 6.72479 13.0747 5.28571 11.2995 5.28571C9.52429 5.28571 8.08521 6.72479 8.08521 8.49999C8.08521 10.2752 9.52429 11.7143 11.2995 11.7143Z" stroke="#969696" stroke-width="2" stroke-linecap="round" stroke-linejoin="round"/>
</svg>
